<?xml version="1.0" encoding="UTF-8"?>
<svg version="1.1" xmlns="http://www.w3.org/2000/svg" width="54" height="52">
<path d="M0 0 C17.82 0 35.64 0 54 0 C54 17.16 54 34.32 54 52 C36.18 52 18.36 52 0 52 C0 34.84 0 17.68 0 0 Z " fill="#0E0E0E" transform="translate(0,0)"/>
<path d="M0 0 C0.77085938 0.28617188 1.54171875 0.57234375 2.3359375 0.8671875 C4.69006218 2.03072039 6.24413859 3.03207804 8 5 C9.46272687 9.3267215 9.53162176 12.68876839 8 17 C4.45115603 20.42647004 0.74836149 22.64827666 -4 24 C-7.125 23.28125 -7.125 23.28125 -10 22 C-11.15628906 21.57074219 -11.15628906 21.57074219 -12.3359375 21.1328125 C-14.69006218 19.96927961 -16.24413859 18.96792196 -18 17 C-19.46272687 12.6732785 -19.53162176 9.31123161 -18 5 C-12.46793838 -0.34130087 -7.30288946 -3.25454856 0 0 Z " fill="#12110E" transform="translate(32,18)"/>
<path d="M0 0 C0.77085938 0.28617188 1.54171875 0.57234375 2.3359375 0.8671875 C4.69006218 2.03072039 6.24413859 3.03207804 8 5 C9.46272687 9.3267215 9.53162176 12.68876839 8 17 C4.45115603 20.42647004 0.74836149 22.64827666 -4 24 C-7.125 23.28125 -7.125 23.28125 -10 22 C-11.15628906 21.57074219 -11.15628906 21.57074219 -12.3359375 21.1328125 C-14.69006218 19.96927961 -16.24413859 18.96792196 -18 17 C-19.46272687 12.6732785 -19.53162176 9.31123161 -18 5 C-12.46793838 -0.34130087 -7.30288946 -3.25454856 0 0 Z M-16 7 C-17.03002991 9.25710903 -17.17363369 10.57218838 -16.89453125 13.02734375 C-15.04004961 17.11692118 -11.08602915 19.44743884 -7 21 C-1.99308589 20.56730372 2.38958384 18.49006895 6 15 C6.96467221 12.78853446 7.0950928 11.3992923 6.86328125 9.00390625 C5.08266711 4.87062546 0.98584803 2.74215874 -3 1 C-8.56641844 1 -12.03484153 3.1490642 -16 7 Z " fill="#B39644" transform="translate(32,18)"/>
<path d="M0 0 C17.82 0 35.64 0 54 0 C54 2.64 54 5.28 54 8 C53.401875 7.360625 52.80375 6.72125 52.1875 6.0625 C49.24503065 3.28817175 46.88495759 2.87830318 42.9909668 2.80712891 C42.18970871 2.79106598 41.38845062 2.77500305 40.56291199 2.75845337 C36.90401239 2.71380946 33.2452901 2.67294498 29.58618164 2.64990234 C27.65897544 2.63334587 25.73183057 2.60605982 23.80493164 2.56787109 C21.01937161 2.51298556 18.23524732 2.49121186 15.44921875 2.4765625 C14.59277267 2.45389313 13.7363266 2.43122375 12.85392761 2.40786743 C8.50203916 2.42316633 5.82766341 2.70146335 2.40942383 5.53271484 C1.61431396 6.34691895 0.8192041 7.16112305 0 8 C0 5.36 0 2.72 0 0 Z " fill="#F1EFE9" transform="translate(0,0)"/>
<path d="M0 0 C2.625 0.375 2.625 0.375 5 1 C5.625 3.375 5.625 3.375 6 6 C5.34 6.66 4.68 7.32 4 8 C1.375 7.625 1.375 7.625 -1 7 C-1.625 4.625 -1.625 4.625 -2 2 C-1.34 1.34 -0.68 0.68 0 0 Z " fill="#AC9042" transform="translate(25,25)"/>
<path d="M0 0 C0.55171875 0.38671875 1.1034375 0.7734375 1.671875 1.171875 C-0.28397825 2.17671704 -2.24288737 3.17561305 -4.203125 4.171875 C-5.29367188 4.72875 -6.38421875 5.285625 -7.5078125 5.859375 C-10.328125 7.171875 -10.328125 7.171875 -12.328125 7.171875 C-12.328125 6.511875 -12.328125 5.851875 -12.328125 5.171875 C-10.28125 3.59375 -10.28125 3.59375 -7.578125 1.921875 C-6.69640625 1.35984375 -5.8146875 0.7978125 -4.90625 0.21875 C-2.328125 -0.828125 -2.328125 -0.828125 0 0 Z " fill="#AE9243" transform="translate(26.328125,17.828125)"/>
<path d="M0 0 C0.66 0 1.32 0 2 0 C2 3.96 2 7.92 2 12 C1.01 12 0.02 12 -1 12 C-0.67 8.04 -0.34 4.08 0 0 Z " fill="#C0A149" transform="translate(38,23)"/>
<path d="M0 0 C-2.88087546 2.40072955 -5.56404834 4.47291037 -9 6 C-8.8125 4.1875 -8.8125 4.1875 -8 2 C-3.744 -1.248 -3.744 -1.248 0 0 Z " fill="#B09343" transform="translate(38,35)"/>
<path d="M0 0 C0.33 0 0.66 0 1 0 C1.33 3.63 1.66 7.26 2 11 C1.01 11 0.02 11 -1 11 C-1.02688151 9.35425434 -1.04634123 7.70838587 -1.0625 6.0625 C-1.07410156 5.14597656 -1.08570313 4.22945312 -1.09765625 3.28515625 C-1 1 -1 1 0 0 Z " fill="#C3A34A" transform="translate(15,24)"/>
</svg>
